<svg xmlns="http://www.w3.org/2000/svg" xmlns:xlink="http://www.w3.org/1999/xlink" viewBox="0 0 143.18 250.09"><defs><style>.cls-1{fill:url(#linear-gradient);}.cls-2{stroke:#fff;stroke-miterlimit:10;}</style><linearGradient id="linear-gradient" x1="26.99" y1="147.47" x2="144.54" y2="57.28" gradientTransform="translate(-4.38 1.84) rotate(-1.32)" gradientUnits="userSpaceOnUse"><stop offset="0" stop-color="#fff"/><stop offset="0.05" stop-color="#fbf9f6"/><stop offset="0.13" stop-color="#f0eadd"/><stop offset="0.23" stop-color="#ded2b4"/><stop offset="0.35" stop-color="#c6b07b"/><stop offset="0.48" stop-color="#a68533"/><stop offset="0.49" stop-color="#a58330"/><stop offset="1"/></linearGradient></defs><title>Asset 3</title><g id="Layer_2" data-name="Layer 2"><g id="Layer_1-2" data-name="Layer 1"><path class="cls-1" d="M121.19,49.29s14.93,1.43,22,8.63c0,0-.82,6.43-20.77,8.12,0,0-11,5.75-20.79,19.44,0,0-.91,16.2,2.29,19.58,0,0,50.09,75.22,3.71,145L5.39,122.07S12.07,63,23.58,50.14c0,0,3.13-7.37,7.31-10.13A82.17,82.17,0,0,0,2.72,6.47S-8.1-.19,13.42.23c0,0,43.8-6.11,99.22,45C112.64,45.22,121.22,50.47,121.19,49.29Z"/><path class="cls-2" d="M38.83,41.65S40,45.53,42,46.76l-2.93,4.43,15-.35s7.86,1.91,8.29,4.81c0,0,12.83,14.25,22.35,12.58a147.94,147.94,0,0,0,32-12.15s3.85-.3,5.46-2.48c0,0-2.89-5.9-7.33-6.89,0,0-12.38,1.38-15.1,2.81,0,0-16,.64-24.93-4.61,0,0-18.16,2.05-20.42-.62,0,0-17.79-5.86-25.14-13.88Z"/></g></g></svg>